PathFileType	4	(X/Y/Z)	s01c0403.trc
DataRate	CameraRate	NumFrames	NumMarkers	Units	OrigDataRate	OrigDataStartFrame	OrigNumFrames
200	200	4	47	mm	200	500	2000
Frame#	Time	racr			lacr			c7			jug			rlel			rdr			llel			ldr			lic			ric			lasi			rasi			rpsi			lpsi			rgt			lgt			rth1			rth2			rth3			rth4			rlfc			rsh1			rsh2			rsh3			rsh4			rlmal			rmmal			rcal			rtoe			rmt5			lth1			lth2			lth4			lth3			llfc			lsh1			lsh2			lsh3			lsh4			llmal			lmmal			lcal			ltoe			lmt5			SBIKE			LBIKE			RBIKE			
		X1	Y1	Z1	X2	Y2	Z2	X3	Y3	Z3	X4	Y4	Z4	X5	Y5	Z5	X6	Y6	Z6	X7	Y7	Z7	X8	Y8	Z8	X9	Y9	Z9	X10	Y10	Z10	X11	Y11	Z11	X12	Y12	Z12	X13	Y13	Z13	X14	Y14	Z14	X15	Y15	Z15	X16	Y16	Z16	X17	Y17	Z17	X18	Y18	Z18	X19	Y19	Z19	X20	Y20	Z20	X21	Y21	Z21	X22	Y22	Z22	X23	Y23	Z23	X24	Y24	Z24	X25	Y25	Z25	X26	Y26	Z26	X27	Y27	Z27	X28	Y28	Z28	X29	Y29	Z29	X30	Y30	Z30	X31	Y31	Z31	X32	Y32	Z32	X33	Y33	Z33	X34	Y34	Z34	X35	Y35	Z35	X36	Y36	Z36	X37	Y37	Z37	X38	Y38	Z38	X39	Y39	Z39	X40	Y40	Z40	X41	Y41	Z41	X42	Y42	Z42	X43	Y43	Z43	X44	Y44	Z44	X45	Y45	Z45	X46	Y46	Z46	X47	Y47	Z47	
500	2.5000	642.419457	1287.379267	13.771324	732.821210	1267.524829	-349.567159	681.842319	1387.754493	-164.638637	671.630496	1218.453315	-162.367813	499.671010	1026.022672	39.536318	682.467388	898.106088	-70.372201	576.920860	1095.771985	-543.526626	692.530679	895.273045	-468.922471	331.060634	1205.581355	-410.594293	294.801719	1219.419246	-83.825993	309.899958	1149.947345	-390.994550	321.591421	1171.779968	-112.365769	197.022339	1280.192383	-204.648523	189.001455	1272.532282	-307.854981	242.179967	1126.204650	-56.639628	229.146979	1079.002862	-434.867685	319.163095	1012.166824	-46.034427	377.902283	953.066712	-53.592608	435.545777	885.357410	-71.581634	418.959041	990.261283	-68.962276	480.635786	782.805678	-97.698158	422.152661	677.566468	-66.470116	390.389448	598.919230	-72.553420	348.455705	521.342103	-85.007133	432.539367	582.408321	-112.704734	283.965813	410.201971	-103.281876	322.803136	424.273437	-187.491298	233.059101	379.841481	-160.629026	500.889572	346.742990	-141.473423	394.876678	319.600281	-73.940549	269.966063	961.329146	-442.431814	327.054613	893.073639	-442.318246	368.571922	925.818502	-434.047278	372.984412	822.087102	-427.188516	403.314711	702.807156	-408.636328	299.630166	662.909936	-443.353781	233.344660	607.680092	-438.350665	165.733439	555.794276	-426.783986	269.322598	567.858581	-408.032413	65.385303	479.064642	-412.758632	93.202941	462.502721	-332.056755	9.804199	487.164546	-368.477121	170.728337	259.788749	-382.524059	86.912528	328.382750	-444.343342	-230.571933	890.651578	-255.459637	-24.476567	80.861301	-458.021999	-24.404035	80.197819	-57.879980	
501	2.5050	642.713619	1287.566267	13.680646	733.155808	1268.689443	-350.812528	681.961766	1388.416775	-165.553113	672.695335	1219.086732	-163.301030	499.445315	1026.175051	38.696797	682.409462	898.078256	-70.595752	577.632933	1095.810970	-543.764618	692.998514	895.033935	-469.328669	331.687142	1204.534426	-411.111049	295.997000	1217.578030	-84.250652	310.853999	1148.948001	-391.500708	323.123980	1170.001919	-113.295463	197.417292	1277.967985	-204.460295	189.178007	1271.334404	-308.174573	243.744804	1123.550962	-57.214736	230.745409	1077.909423	-435.371731	320.184598	1009.229796	-46.636654	378.210844	949.599019	-53.775814	435.412639	881.403046	-72.471447	419.714025	986.473570	-69.689751	479.912107	778.669098	-98.456583	421.787339	673.235088	-66.919365	390.290911	594.501313	-72.873789	348.674622	516.769941	-85.143290	432.418788	577.536708	-113.570283	284.236232	405.554152	-103.316158	323.234871	419.305587	-187.448193	233.507910	375.308794	-160.689973	501.181318	340.827313	-141.492265	394.937315	314.285071	-74.003815	272.995732	961.033393	-442.819016	330.860163	893.377490	-442.782701	372.063278	926.533971	-434.301230	377.588831	822.834122	-428.062475	408.250705	703.910092	-410.415342	304.005004	664.976137	-444.301425	237.051134	610.560388	-438.958967	168.757436	559.611414	-427.167308	272.590128	570.288787	-408.731926	67.746710	484.411369	-412.980518	95.792554	467.741194	-331.781195	12.025597	493.033327	-368.585047	170.605173	264.064485	-382.570905	88.210052	334.414689	-445.727539	-230.575369	890.660466	-255.468491	-24.475784	80.893398	-458.006084	-24.405297	80.207993	-57.896313	
502	2.5100	643.253873	1287.524399	12.812099	733.304535	1270.023568	-352.190416	682.056624	1389.102159	-166.477221	673.719893	1219.676033	-164.303144	499.323098	1026.208707	37.786023	682.379274	898.025329	-70.935269	578.404955	1095.745743	-544.011692	693.457479	894.776325	-469.735389	332.248332	1203.574830	-411.622124	297.347396	1215.648527	-84.691296	311.800194	1148.023867	-391.992647	324.495910	1168.245374	-114.018757	197.612550	1275.611136	-204.221534	189.642412	1269.594218	-308.118403	245.307471	1121.007363	-57.740556	232.404999	1076.858375	-435.923411	321.162908	1006.137441	-47.263539	378.689654	946.131286	-54.531714	435.284074	877.398703	-73.341086	420.388870	982.597273	-70.406856	479.198886	774.474089	-99.140149	421.474665	668.758988	-67.656639	390.160151	590.053350	-73.195898	348.830613	512.139979	-85.336744	432.350030	573.597009	-113.679012	284.434529	400.821566	-103.473829	323.593475	414.384226	-187.426392	233.726185	370.801589	-160.693480	501.552912	335.028342	-141.718038	394.929526	308.815600	-74.009045	276.166835	960.773903	-443.237293	334.732658	893.750690	-443.322421	375.532949	927.364595	-434.595407	382.332042	823.749586	-428.605697	413.313443	704.926813	-411.820929	308.548033	666.999306	-445.326015	240.924864	613.431583	-439.772400	172.199044	563.492633	-427.685390	275.926081	572.700376	-409.495397	70.047325	489.922216	-413.458187	98.313545	472.819582	-331.878224	14.642048	499.044277	-368.713445	170.651783	268.329010	-382.654104	88.767441	339.246660	-445.411358	-230.546419	890.662014	-255.491714	-24.462399	80.875790	-458.005969	-24.395205	80.208554	-57.902252	
503	2.5150	643.715581	1287.583063	12.270080	733.333664	1271.489448	-353.691613	682.118331	1389.888891	-167.564260	674.714917	1220.504104	-165.471363	499.219381	1026.258975	36.927470	682.405615	897.925990	-71.411574	579.221604	1095.638602	-544.161219	693.907302	894.506691	-470.263517	332.859710	1202.672211	-412.174721	298.572396	1213.748584	-85.117160	312.848008	1147.141986	-392.470048	325.930854	1166.440839	-115.088777	197.636278	1273.141656	-203.940265	190.599579	1267.438030	-308.022466	246.816050	1118.322196	-58.339635	234.176223	1075.842363	-436.513331	322.099194	1003.129973	-47.853471	379.150136	942.622630	-55.373744	435.104873	873.422160	-74.175890	421.076983	978.743794	-71.163165	478.368343	770.209560	-99.862250	421.048576	664.362546	-68.118580	389.967316	585.563020	-73.544419	348.890860	507.441607	-85.545150	432.235258	569.263599	-113.561468	284.556119	396.026612	-103.665650	323.837352	409.482087	-187.446412	233.870815	366.360011	-160.736930	501.278740	328.364983	-142.334321	394.738089	303.511492	-74.047358	279.294345	960.556101	-443.732105	338.652833	894.190200	-443.948811	378.985709	928.268147	-435.031059	387.099456	824.645968	-429.689586	418.405974	705.879737	-413.342978	313.215755	669.068373	-446.420957	244.983253	616.291082	-440.608991	175.043613	567.613858	-428.929976	279.476760	575.281594	-410.353460	72.739555	495.185292	-413.708995	101.140430	477.904599	-332.095920	17.558679	504.998457	-368.807383	170.931224	272.617571	-382.748153	89.519213	344.151524	-445.137973	-230.534734	890.694998	-255.514708	-24.454847	80.897328	-458.017899	-24.391151	80.215188	-57.898664	
